<svg class="render__svg" viewBox="0 0 800 520" preserveAspectRatio="xMidYMid meet" aria-hidden="true" focusable="false" style="direction:ltr">
<line class="g" x1="40" y1="20" x2="40" y2="500" pathLength="1" vector-effect="non-scaling-stroke"/>
<line class="g" x1="80" y1="20" x2="80" y2="500" pathLength="1" vector-effect="non-scaling-stroke"/>
<line class="g" x1="120" y1="20" x2="120" y2="500" pathLength="1" vector-effect="non-scaling-stroke"/>
<line class="g" x1="160" y1="20" x2="160" y2="500" pathLength="1" vector-effect="non-scaling-stroke"/>
<line class="g" x1="200" y1="20" x2="200" y2="500" pathLength="1" vector-effect="non-scaling-stroke"/>
<line class="g" x1="240" y1="20" x2="240" y2="500" pathLength="1" vector-effect="non-scaling-stroke"/>
<line class="g" x1="280" y1="20" x2="280" y2="500" pathLength="1" vector-effect="non-scaling-stroke"/>
<line class="g" x1="320" y1="20" x2="320" y2="500" pathLength="1" vector-effect="non-scaling-stroke"/>
<line class="g" x1="360" y1="20" x2="360" y2="500" pathLength="1" vector-effect="non-scaling-stroke"/>
<line class="g" x1="400" y1="20" x2="400" y2="500" pathLength="1" vector-effect="non-scaling-stroke"/>
<line class="g" x1="440" y1="20" x2="440" y2="500" pathLength="1" vector-effect="non-scaling-stroke"/>
<line class="g" x1="480" y1="20" x2="480" y2="500" pathLength="1" vector-effect="non-scaling-stroke"/>
<line class="g" x1="520" y1="20" x2="520" y2="500" pathLength="1" vector-effect="non-scaling-stroke"/>
<line class="g" x1="560" y1="20" x2="560" y2="500" pathLength="1" vector-effect="non-scaling-stroke"/>
<line class="g" x1="600" y1="20" x2="600" y2="500" pathLength="1" vector-effect="non-scaling-stroke"/>
<line class="g" x1="640" y1="20" x2="640" y2="500" pathLength="1" vector-effect="non-scaling-stroke"/>
<line class="g" x1="680" y1="20" x2="680" y2="500" pathLength="1" vector-effect="non-scaling-stroke"/>
<line class="g" x1="720" y1="20" x2="720" y2="500" pathLength="1" vector-effect="non-scaling-stroke"/>
<line class="g" x1="760" y1="20" x2="760" y2="500" pathLength="1" vector-effect="non-scaling-stroke"/>
<line class="g" x1="40" y1="40" x2="760" y2="40" pathLength="1" vector-effect="non-scaling-stroke"/>
<line class="g" x1="40" y1="80" x2="760" y2="80" pathLength="1" vector-effect="non-scaling-stroke"/>
<line class="g" x1="40" y1="120" x2="760" y2="120" pathLength="1" vector-effect="non-scaling-stroke"/>
<line class="g" x1="40" y1="160" x2="760" y2="160" pathLength="1" vector-effect="non-scaling-stroke"/>
<line class="g" x1="40" y1="200" x2="760" y2="200" pathLength="1" vector-effect="non-scaling-stroke"/>
<line class="g" x1="40" y1="240" x2="760" y2="240" pathLength="1" vector-effect="non-scaling-stroke"/>
<line class="g" x1="40" y1="280" x2="760" y2="280" pathLength="1" vector-effect="non-scaling-stroke"/>
<line class="g" x1="40" y1="320" x2="760" y2="320" pathLength="1" vector-effect="non-scaling-stroke"/>
<line class="g" x1="40" y1="360" x2="760" y2="360" pathLength="1" vector-effect="non-scaling-stroke"/>
<line class="g" x1="40" y1="400" x2="760" y2="400" pathLength="1" vector-effect="non-scaling-stroke"/>
<line class="g" x1="40" y1="440" x2="760" y2="440" pathLength="1" vector-effect="non-scaling-stroke"/>
<line class="g" x1="40" y1="480" x2="760" y2="480" pathLength="1" vector-effect="non-scaling-stroke"/>
<line class="d" x1="400" y1="36" x2="400" y2="484" pathLength="1" vector-effect="non-scaling-stroke"/>
<polygon class="f s" points="434,206 736,232 736,288 434,304" pathLength="1" vector-effect="non-scaling-stroke"/>
<polygon class="f s" points="366,206 64,232 64,288 366,304" pathLength="1" vector-effect="non-scaling-stroke"/>
<polygon class="f s" points="410,412 538,428 538,454 412,454" pathLength="1" vector-effect="non-scaling-stroke"/>
<polygon class="f s" points="390,412 262,428 262,454 388,454" pathLength="1" vector-effect="non-scaling-stroke"/>
<line class="s2" x1="444" y1="292" x2="728" y2="278" pathLength="1" vector-effect="non-scaling-stroke"/>
<line class="s2" x1="356" y1="292" x2="72" y2="278" pathLength="1" vector-effect="non-scaling-stroke"/>
<polygon class="f s" points="400,62 406.5,70.5 417.6,79 420.2,87.5 422.5,96 426.1,104.5 429.1,113 430,121.5 430.6,130 431.8,138.5 433.4,147 434.8,155.5 435.8,164 436,172.5 436,181 436,189.5 436,198 436,206.5 436,215 436,223.5 436,232 436,240.5 436,249 435.9,257.5 435.4,266 434.7,274.5 433.8,283 432.8,291.5 431.9,300 431,308.5 430.4,317 430,325.5 429.9,334 429.2,342.5 427.9,351 426.2,359.5 424.3,368 422.5,376.5 421.1,385 420.2,393.5 420,402 419.2,410.5 417.6,419 415.6,427.5 413.7,436 412.4,444.5 411.9,453 405.5,461.5 400,470 400,470 394.5,461.5 388.1,453 387.6,444.5 386.3,436 384.4,427.5 382.4,419 380.8,410.5 380,402 379.8,393.5 378.9,385 377.5,376.5 375.7,368 373.8,359.5 372.1,351 370.8,342.5 370.1,334 370,325.5 369.6,317 369,308.5 368.1,300 367.2,291.5 366.2,283 365.3,274.5 364.6,266 364.1,257.5 364,249 364,240.5 364,232 364,223.5 364,215 364,206.5 364,198 364,189.5 364,181 364,172.5 364.2,164 365.2,155.5 366.6,147 368.2,138.5 369.4,130 370,121.5 370.9,113 373.9,104.5 377.5,96 379.8,87.5 382.4,79 393.5,70.5 400,62" pathLength="1" vector-effect="non-scaling-stroke"/>
<rect class="s2" x="424" y="176" width="7" height="16" rx="1" pathLength="1" vector-effect="non-scaling-stroke"/>
<rect class="s2" x="369" y="176" width="7" height="16" rx="1" pathLength="1" vector-effect="non-scaling-stroke"/>
<rect class="s2" x="426" y="212" width="7" height="16" rx="1" pathLength="1" vector-effect="non-scaling-stroke"/>
<rect class="s2" x="367" y="212" width="7" height="16" rx="1" pathLength="1" vector-effect="non-scaling-stroke"/>
<rect class="s2" x="426" y="248" width="7" height="16" rx="1" pathLength="1" vector-effect="non-scaling-stroke"/>
<rect class="s2" x="367" y="248" width="7" height="16" rx="1" pathLength="1" vector-effect="non-scaling-stroke"/>
<rect class="s2" x="422" y="284" width="7" height="16" rx="1" pathLength="1" vector-effect="non-scaling-stroke"/>
<rect class="s2" x="371" y="284" width="7" height="16" rx="1" pathLength="1" vector-effect="non-scaling-stroke"/>
<line class="s2" x1="370" y1="150" x2="386" y2="134" pathLength="1" vector-effect="non-scaling-stroke"/>
<line class="s2" x1="430" y1="150" x2="414" y2="134" pathLength="1" vector-effect="non-scaling-stroke"/>
<line class="s2" x1="386" y1="134" x2="414" y2="134" pathLength="1" vector-effect="non-scaling-stroke"/>
<line class="s3" x1="400" y1="388" x2="400" y2="470" pathLength="1" vector-effect="non-scaling-stroke"/>
<circle class="d" cx="400" cy="62" r="64" pathLength="1" vector-effect="non-scaling-stroke"/>
<circle class="s" cx="400" cy="62" r="6" pathLength="1" vector-effect="non-scaling-stroke"/>
<line class="s2" x1="342" y1="62" x2="458" y2="62" pathLength="1" vector-effect="non-scaling-stroke"/>
<line class="d" x1="64" y1="482" x2="736" y2="482" pathLength="1" vector-effect="non-scaling-stroke"/>
<line class="s2" x1="64" y1="474" x2="64" y2="490" pathLength="1" vector-effect="non-scaling-stroke"/>
<line class="s2" x1="736" y1="474" x2="736" y2="490" pathLength="1" vector-effect="non-scaling-stroke"/>
<text class="lbl" x="400" y="504" text-anchor="middle">SPAN</text>
<line class="d" x1="720" y1="62" x2="720" y2="470" pathLength="1" vector-effect="non-scaling-stroke"/>
<line class="s2" x1="712" y1="62" x2="728" y2="62" pathLength="1" vector-effect="non-scaling-stroke"/>
<line class="s2" x1="712" y1="470" x2="728" y2="470" pathLength="1" vector-effect="non-scaling-stroke"/>
<text class="lbl" x="734" y="270" text-anchor="start">LENGTH</text>
<text class="lbl" x="408" y="48" text-anchor="start">CL</text>
<line class="s2" x1="64" y1="100" x2="76" y2="100" pathLength="1" vector-effect="non-scaling-stroke"/>
<text class="lbl" x="40" y="104" text-anchor="start">FS00</text>
<line class="s2" x1="64" y1="160" x2="76" y2="160" pathLength="1" vector-effect="non-scaling-stroke"/>
<text class="lbl" x="40" y="164" text-anchor="start">FS01</text>
<line class="s2" x1="64" y1="220" x2="76" y2="220" pathLength="1" vector-effect="non-scaling-stroke"/>
<text class="lbl" x="40" y="224" text-anchor="start">FS02</text>
<line class="s2" x1="64" y1="280" x2="76" y2="280" pathLength="1" vector-effect="non-scaling-stroke"/>
<text class="lbl" x="40" y="284" text-anchor="start">FS03</text>
<line class="s2" x1="64" y1="340" x2="76" y2="340" pathLength="1" vector-effect="non-scaling-stroke"/>
<text class="lbl" x="40" y="344" text-anchor="start">FS04</text>
<line class="s2" x1="64" y1="400" x2="76" y2="400" pathLength="1" vector-effect="non-scaling-stroke"/>
<text class="lbl" x="40" y="404" text-anchor="start">FS05</text>
<line class="s" x1="24" y1="24" x2="42" y2="24" pathLength="1" vector-effect="non-scaling-stroke"/>
<line class="s" x1="24" y1="24" x2="24" y2="42" pathLength="1" vector-effect="non-scaling-stroke"/>
<line class="s" x1="776" y1="24" x2="758" y2="24" pathLength="1" vector-effect="non-scaling-stroke"/>
<line class="s" x1="776" y1="24" x2="776" y2="42" pathLength="1" vector-effect="non-scaling-stroke"/>
<line class="s" x1="24" y1="496" x2="42" y2="496" pathLength="1" vector-effect="non-scaling-stroke"/>
<line class="s" x1="24" y1="496" x2="24" y2="478" pathLength="1" vector-effect="non-scaling-stroke"/>
<line class="s" x1="776" y1="496" x2="758" y2="496" pathLength="1" vector-effect="non-scaling-stroke"/>
<line class="s" x1="776" y1="496" x2="776" y2="478" pathLength="1" vector-effect="non-scaling-stroke"/>
</svg>